<?xml version="1.0" encoding="UTF-8" standalone="no"?><!DOCTYPE svg PUBLIC "-//W3C//DTD SVG 1.1//EN" "http://www.w3.org/Graphics/SVG/1.1/DTD/svg11.dtd"><svg width="100%" height="100%" viewBox="0 0 250 200" version="1.1" xmlns="http://www.w3.org/2000/svg" xmlns:xlink="http://www.w3.org/1999/xlink" xml:space="preserve" xmlns:serif="http://www.serif.com/" style="fill-rule:evenodd;clip-rule:evenodd;stroke-linejoin:round;stroke-miterlimit:2;"><g><g><path d="M5.159,102.772l4.852,-20.987l5.818,7.535l4.674,2.88l2.31,-0.693l0.749,-2.852c-0.153,-4.565 -2.806,-4.865 -4.384,-5.807l-2.171,-1.353c-2.464,-1.668 -5.228,-4.567 -7.207,-9.298c-1.598,-3.826 -2.525,-8.454 -2.616,-14.426c-0.127,-8.313 1.09,-15.171 3.195,-20.698c2.277,-5.998 4.891,-8.536 7.965,-8.531l5.125,2.268l6.183,7.07l0.636,23.415l-4.32,-5.597l-3.682,-2.307l-1.861,0.745l-0.395,2.854c0.564,5.461 5.543,6.89 6.043,7.207l1.412,0.914l7.029,8.806c1.897,3.798 3.041,6.838 3.474,13.963c0.554,9.155 -0.865,15.83 -3.569,20.68c-3.574,6.409 -8.241,7.442 -12.295,6.778l-8.331,-3.818l-8.634,-8.748Z" style="fill:#fff;fill-rule:nonzero;"/><path d="M43.674,115.344c-1.548,-46.092 -2.386,-44.794 -11.582,-84.322l18.93,0.399l7.86,28.391l-9.848,-0.994l1.912,8.342l9.103,0.857c1.501,6.102 4.603,26.63 3.817,19.526l-9.393,-0.326l0.663,7.766l10.688,0.019l1.226,19.555l-23.376,0.787Z" style="fill:#fff;fill-rule:nonzero;"/><path d="M80.001,88.25l4.274,-0.192l-2.104,-7.317l-3.312,-9.79l-2.142,-7.102l-0.176,-0.009l1.556,7.084l1.594,9.832l0.31,7.494Zm-12.533,26.264c2.401,-22.794 3.462,-44.292 -5.81,-82.912l11.227,0.158c2.292,5.523 22.179,53.435 26.088,76.812l-9.865,2.463l-1.359,-8.058l-7.841,1.118l-0.471,8.793l-11.969,1.626Z" style="fill:#fff;fill-rule:nonzero;"/><path d="M100.5,60.108l2.831,14.743l1.122,-0.149l1.29,-1.909l-0.299,-5.145l-1.604,-5.649l-2.118,-1.992l-1.222,0.101Zm-0.398,48.102c-1.47,-33.158 -14.18,-71.18 -15.899,-76.323l12.302,-0.045c3.675,-0.027 7.183,4.243 10,10.784c2.573,5.975 4.556,13.746 5.71,22.6l0.491,11.987c-0.29,2.94 -0.949,4.795 -1.985,5.511l6.425,19.261l-6.966,2.714l-4.746,-16.819l1.534,17.991l-6.866,2.339Z" style="fill:#fff;fill-rule:nonzero;"/><path d="M129.762,66.281l-1.905,-4.301l-2.164,-1.342l-2.673,4.248l-0.543,9.367l1.321,7.732l2.266,2.127l1.642,-1.758l1.974,-4.371l-0.535,17.919l-1.689,2.429l-1.566,1.27l-1.958,0.036l-1.929,-1.547l-3.748,-8.172l-2.575,-14.006l-0.788,-14.333l0.971,-15.226l3.402,-12.913l5.649,-5.029l3.281,1.685l2.866,4.725l-1.299,31.46Z" style="fill:#fff;fill-rule:nonzero;"/><path d="M131.508,96.064c0.742,-28.058 3.586,-59.475 4.046,-64.555l9.774,-0.064l-4.637,29.11l4.801,-0.663l5.804,-28.485l9.801,-0.061c-10.097,32.72 -12.54,54.343 -13.146,59.709l-6.822,1.924l1.898,-16.446l-4.261,1.168l-1.478,16.441l-5.78,1.922Z" style="fill:#fff;fill-rule:nonzero;"/><path d="M151.956,89.984c0.677,-5.413 3.022,-24.153 14.554,-58.698l10.239,-0.168c-12.092,36.045 -15.839,62.098 -15.081,56.826l-9.712,2.04Z" style="fill:#fff;fill-rule:nonzero;"/><path d="M167.316,86.888c2.562,-18.755 16.23,-59.93 14.877,-55.854l9.904,-0.144c-1.372,9.328 2.709,38.58 0.684,30.27l0.504,-3.144l1.158,-4.91l6.094,-22.33l9.764,-0.124c-9.799,38.088 -11.037,56.177 -10.715,51.479l-12.07,1.53l-4.568,-22.668l-0.536,3.009l-0.829,3.609l-3.649,17.475l-10.618,1.802Z" style="fill:#fff;fill-rule:nonzero;"/><path d="M230.749,61.055l-5.458,0.524l0.932,-8.794l18.525,-1.403l0.07,1.667l0.023,0.955l-0.583,5.777l-1.76,5.396l-7.683,11.37c-3.494,3.462 -6.788,5.036 -10.482,5.238l-7.777,-2.038l-5.468,-6.022l-2.623,-7.534l0.197,-7.997l2.91,-8.753l5.259,-9.402l6.571,-8.241l6.486,-3.268c2.654,-0.002 4.887,1.669 7.23,5.153l5.533,11.041l-10.723,5.79l-1.757,-2.437l-2.523,-0.72l-4.436,2.976l-2.412,6.501l0.848,6.073l4.486,1.934l3.067,-1.213l1.548,-2.573Z" style="fill:#fff;fill-rule:nonzero;"/></g><g><g><path d="M5.159,170.252l-0.13,-56.463l23.994,2.788l-0.752,12.901l-10.432,-0.204l-0.361,6.446l9.226,0.013l-1.529,14.527l-8.617,0.183l-1.597,19.789l-9.802,0.02Z" style="fill:#fff;fill-rule:nonzero;"/><path d="M44.089,152.106c1.595,-0.101 2.968,-1.391 4.151,-3.306l2.874,-8.066l-0.057,-7.439c-0.734,-2.068 -2.054,-2.505 -3.273,-2.419c-1.578,0.112 -2.972,1.111 -4.183,2.992l-2.59,7.645l0.067,7.781c0.626,2.203 1.736,2.892 3.011,2.812Zm17.79,-12.522l-3.751,12.41l-5.716,10.696l-6.403,6.729l-6.159,2.17l-5.188,-2.083l-3.564,-6.228l-1.721,-9.465l0.379,-11.761l2.517,-11.313l4.63,-8.345l5.81,-4.755l6.73,-1.52l6.477,1.123l4.895,3.981l1.995,7.454l-0.931,10.907Z" style="fill:#fff;fill-rule:nonzero;"/><path d="M65.447,141.42c1.749,-8.433 4.66,-34.928 4.258,-25.926l10.132,-1.373c-0.488,8.993 -5.942,34.421 -4.181,25.99l-1.203,8.181l1.598,2.099l2.749,-2.759l2.488,-8.455c-0,-0 2.292,-12.099 3.245,-18.257c0.389,-2.513 0.774,-7.71 0.774,-7.71l9.54,-1.853l-3.549,25.775l-2.936,11.965l-3.347,8.574c-2.095,4.254 -4.539,7.999 -7.341,10.568l-7.354,3.35l-5.506,-3.072c-1.45,-2.321 -1.938,-5.594 -2.002,-9.007l0.594,-7.231l2.041,-10.859Z" style="fill:#fff;fill-rule:nonzero;"/><path d="M105.437,118.14l-1.136,10.907l1.176,-0.276l1.799,-1.927l0.956,-4.345l-0.207,-3.859l-1.461,-0.844l-1.127,0.344Zm-17.225,51.538c1.234,-4.463 9.378,-33.928 10.834,-59.354l8.919,-2.572c1.647,-0.499 4.083,-0.932 5.627,1.154c1.795,2.43 1.696,7.064 1.506,10.486l-1.744,11.299c-0.743,2.583 -1.86,5.313 -3.459,6.282l2.991,32.455l-10.676,0.119l0.096,-25.742l-4.735,25.789l-9.359,0.084Z" style="fill:#fff;fill-rule:nonzero;"/><path d="M125.044,161.61l2.232,-24.804l2.863,6.258l2.408,1.94l1.081,-1.369l0.149,-3.363c-0.206,-2.53 -1.091,-4.116 -2.376,-5.036l-1.029,-0.782c-1.581,-1.366 -2.6,-3.943 -3.248,-6.838l-1.05,-11.365c-0.014,-4.139 0.325,-8.606 1.523,-12.229c0.92,-2.783 2.169,-4.507 3.907,-5.195l2.374,-0.12l2.617,1.759l-0.545,12.944l-1.845,-2.632l-1.588,-0.602l-0.828,0.838l-0.214,1.806c0.143,2.7 1.422,2.711 2.561,3.407l0.627,0.402c1.486,0.974 2.566,3.694 3.307,6.051l2.779,13.548c0.998,7.031 2.296,17.67 1.416,25.458c-0.704,6.2 -2.891,9.903 -6.556,9.903l-5.424,-2.47l-5.141,-7.509Z" style="fill:#fff;fill-rule:nonzero;"/><path d="M153.191,169.081c-7.785,-29.933 -10.684,-52.3 -11.296,-57.024l-3.223,0.639l-1.511,-15.254l11.867,-4.301l2.398,17.284l-3.513,0.553c0.765,4.929 4.219,27.169 14.7,58.05l-9.422,0.053Z" style="fill:#fff;fill-rule:nonzero;"/><path d="M166.546,133.658l3.939,0.113l-3.667,-9.923l-3.292,-10.191l-1.415,-5.992l-0.154,0.015l0.899,6.014l1.709,10.165l1.981,9.799Zm-0.562,35.374c-1.659,-5.66 -12.725,-43.4 -11.703,-77.517l9.836,-2.212c3.714,9.092 5.949,20.031 9.589,29.224c6.941,17.526 14.086,34.879 22.091,50.777l-10.454,-0.118l-5.539,-12.213l-7.339,-0.283l3.881,12.415l-10.362,-0.073Z" style="fill:#fff;fill-rule:nonzero;"/><path d="M188.757,102.582l2.496,15.695l1.786,0.075l2.228,-2.008l0.011,-5.96l-1.796,-5.917l-2.906,-1.933l-1.819,0.048Zm8.54,66.741c-14.049,-39.203 -16.188,-36.41 -22.057,-81.96l14.159,-1.587c3.818,-0.299 8.098,0.555 11.437,4.455c3.621,4.236 5.347,11.394 6.255,18.922l0.472,15.545c-0.161,3.602 -0.899,6.619 -2.923,7.246l18.026,37.785l-11.025,-0.196l-14.851,-31.077l10.084,31.002l-9.577,-0.135Z" style="fill:#fff;fill-rule:nonzero;"/><path d="M220.273,163.014l-2.297,-25.596l6.265,8.266l4.287,2.897l1.825,-1.012l0.276,-3.456c-0.481,-3.716 -3.264,-5.754 -4.754,-6.699l-2.155,-1.415c-3.147,-2.23 -5.815,-5.759 -8.117,-10.261c-2.477,-4.84 -3.621,-9.202 -4.371,-15.996c-0.77,-6.976 -0.851,-14.849 2.451,-19.986c3.408,-5.288 8.871,-5.476 12.933,-5.209l8.479,1.836l8.934,4.985l-5.238,20.231l-5.086,-5.822l-4.758,-2.219l-2.538,0.819l-0.699,2.941c0.36,5.31 5.732,6.748 7.001,7.462l1.695,0.984c3.171,1.871 5.761,5.213 7.697,10.217c1.985,5.136 2.738,10.95 2.738,17.153c0,7.577 -0.856,15.952 -3.599,21.995c-2.125,4.686 -4.773,6.46 -8.001,6.46l-5.742,-1.859l-7.226,-6.716Z" style="fill:#fff;fill-rule:nonzero;"/></g></g></g></svg>